<?xml version="1.0" encoding="utf-8"?>
<!-- Generator: Adobe Illustrator 18.1.1, SVG Export Plug-In . SVG Version: 6.00 Build 0)  -->
<svg version="1.1" id="Camada_1" xmlns="http://www.w3.org/2000/svg" xmlns:xlink="http://www.w3.org/1999/xlink" x="0px" y="0px"
	 viewBox="0 0 200 200" enable-background="new 0 0 200 200" xml:space="preserve">
<g>
	<path fill="#3D3734" d="M157,37.6c9.5,0,17.2,7.7,17.2,17.2c0,9.5-7.7,17.2-17.2,17.2c-9.5,0-17.2-7.7-17.2-17.2
		C139.8,45.3,147.5,37.6,157,37.6 M157,18c-20.3,0-36.8,16.5-36.8,36.8c0,20.3,16.5,36.8,36.8,36.8c20.3,0,36.8-16.5,36.8-36.8
		C193.8,34.4,177.3,18,157,18L157,18z"/>
	<path fill="#3D3734" d="M96.2,52.9c5.8,0,10.4,4.7,10.4,10.5c0,5.8-4.7,10.5-10.4,10.5s-10.5-4.7-10.5-10.5
		C85.7,57.6,90.4,52.9,96.2,52.9 M96.2,36.5c-14.8,0-26.8,12-26.8,26.8c0,14.8,12,26.8,26.8,26.8c14.8,0,26.8-12,26.8-26.8
		C123,48.5,111,36.5,96.2,36.5L96.2,36.5z"/>
	<path fill="#3D3734" d="M148.8,176c0,3.3-2.7,6-6,6h-27.2c-3.3,0-6-2.7-6-6v-6c0-3.3,2.7-6.1,6-6.1h27.2c3.3,0,6,2.7,6,6.1V176z"/>
	<path fill="#F8AD00" d="M70.9,108.9c0-1.8-1.5-3.3-3.3-3.3c0,0,0,0,0,0L39,105.7L9.7,91.7c-1-0.5-2.2-0.4-3.2,0.2
		c-1,0.6-1.5,1.6-1.5,2.8l0.3,67.9c0,1.1,0.6,2.2,1.5,2.8c0.5,0.3,1.1,0.5,1.7,0.5c0.5,0,1-0.1,1.4-0.3l28.7-13.9l29.1-0.1
		c1.8,0,3.3-1.5,3.3-3.3L70.9,108.9z"/>
	<path fill="#544B48" d="M195,165.6c0,3.2-2.6,5.7-5.7,5.7H63.1c-3.2,0-5.7-2.6-5.7-5.7V90.8c0-3.2,2.6-5.7,5.7-5.7h126.1
		c3.2,0,5.7,2.6,5.7,5.7V165.6z"/>
	<path fill="#F8F5F6" d="M152.9,128.2c0,14.8-12,26.7-26.7,26.7c-14.8,0-26.7-12-26.7-26.7c0-14.8,12-26.7,26.7-26.7
		C141,101.5,152.9,113.4,152.9,128.2z"/>
	<path fill="#70A92E" d="M140.9,127.2l-23.2-11c-0.5-0.2-1-0.2-1.4,0.1c-0.4,0.3-0.7,0.8-0.7,1.3v22.1c0,0.5,0.3,1,0.7,1.3
		c0.2,0.2,0.5,0.2,0.8,0.2c0.2,0,0.4,0,0.6-0.1l23.2-11c0.5-0.2,0.9-0.8,0.9-1.4C141.8,128,141.4,127.5,140.9,127.2z"/>
</g>
</svg>
