<?xml version="1.0" encoding="utf-8"?>
<!-- Generator: Adobe Illustrator 18.1.1, SVG Export Plug-In . SVG Version: 6.00 Build 0)  -->
<svg version="1.1" id="Camada_1" xmlns="http://www.w3.org/2000/svg" xmlns:xlink="http://www.w3.org/1999/xlink" x="0px" y="0px"
	 viewBox="0 0 200 200" enable-background="new 0 0 200 200" xml:space="preserve">
<g>
	<path fill="#DADADA" d="M195,149c0-21.8-15.2-40.1-35.6-44.8c-3.3-0.8-6.8-1.2-10.4-1.2c-1,0-2,0-3,0.1
		c-22.3,1.4-40.3,18.7-42.7,40.7c-0.2,1.7-0.3,3.4-0.3,5.2c0,3.3,0.4,6.5,1,9.6c4.4,20.8,22.9,36.4,45,36.4
		C174.4,195,195,174.4,195,149L195,149z M149,179.4c-16.8,0-30.4-13.6-30.4-30.4c0-16.8,13.6-30.4,30.4-30.4
		c16.8,0,30.4,13.6,30.4,30.4C179.4,165.8,165.8,179.4,149,179.4L149,179.4z M149,179.4"/>
	<path fill="#70A92E" d="M154.9,128.2h-10.4v16.3h-16.3v10.4h26.7v-10.4V128.2z M154.9,128.2"/>
	<path fill="#FFCE00" d="M39.1,5c-2.9,0-5.2,2.3-5.2,5.2v24.5c0,2.9,2.3,5.2,5.2,5.2h4.5c2.9,0,5.2-2.3,5.2-5.2V10.2
		c0-2.9-2.3-5.2-5.2-5.2H39.1z M39.1,5"/>
	<path fill="#FFCE00" d="M120.8,5c-2.9,0-5.2,2.3-5.2,5.2v24.5c0,2.9,2.3,5.2,5.2,5.2h4.5c2.9,0,5.2-2.3,5.2-5.2V10.2
		c0-2.9-2.3-5.2-5.2-5.2H120.8z M120.8,5"/>
	<path fill="#F5A700" d="M16.9,158.6h73.5c-0.7-3.6-1.1-7.3-1.1-11.1c0-1.2,0.1-2.5,0.1-3.7H27.3c-4.9,0-8.9-4-8.9-8.9V63.6H146
		v27.5c1-0.1,2-0.1,3-0.1c3.5,0,7,0.3,10.4,1V33.9c0-6.6-5.3-11.9-11.9-11.9h-9.6v12.6c0,7-5.7,12.6-12.6,12.6h-4.5
		c-7,0-12.6-5.7-12.6-12.6V22.1h-52v12.6c0,7-5.7,12.6-12.6,12.6h-4.5c-6.9,0-12.6-5.7-12.6-12.6V22.1h-9.7C10.3,22.1,5,27.4,5,33.9
		v112.8C5,153.3,10.3,158.6,16.9,158.6L16.9,158.6z M16.9,158.6"/>
	<path fill="#B6C806" d="M58.6,85.9c0,6.5-5.3,11.8-11.8,11.8c-6.5,0-11.8-5.3-11.8-11.8c0-6.5,5.3-11.8,11.8-11.8
		C53.3,74.1,58.6,79.4,58.6,85.9L58.6,85.9z M58.6,85.9"/>
	<path fill="#B6C806" d="M94,85.9c0,6.5-5.3,11.8-11.8,11.8c-6.5,0-11.8-5.3-11.8-11.8c0-6.5,5.3-11.8,11.8-11.8
		C88.7,74.1,94,79.4,94,85.9L94,85.9z M94,85.9"/>
	<path fill="#B6C806" d="M129.3,85.9c0,6.5-5.3,11.8-11.8,11.8c-6.5,0-11.8-5.3-11.8-11.8c0-6.5,5.3-11.8,11.8-11.8
		C124,74.1,129.3,79.4,129.3,85.9L129.3,85.9z M129.3,85.9"/>
	<path fill="#B6C806" d="M94,121.5c0,6.5-5.3,11.8-11.8,11.8c-6.5,0-11.8-5.3-11.8-11.8c0-6.5,5.3-11.8,11.8-11.8
		C88.7,109.7,94,115,94,121.5L94,121.5z M94,121.5"/>
	<path fill="#B6C806" d="M58.6,121.5c0,6.5-5.3,11.8-11.8,11.8c-6.5,0-11.8-5.3-11.8-11.8c0-6.5,5.3-11.8,11.8-11.8
		C53.3,109.7,58.6,115,58.6,121.5L58.6,121.5z M58.6,121.5"/>
</g>
</svg>
