<?xml version="1.0" encoding="utf-8"?>
<!-- Generator: Adobe Illustrator 18.1.1, SVG Export Plug-In . SVG Version: 6.00 Build 0)  -->
<svg version="1.1" id="Camada_1" xmlns="http://www.w3.org/2000/svg" xmlns:xlink="http://www.w3.org/1999/xlink" x="0px" y="0px"
	 viewBox="0 0 200 200" enable-background="new 0 0 200 200" xml:space="preserve">
<g>
	<path fill="#3D3734" d="M156.3,176.5h-37.5V171h37.5c21.9,0,32.4-39.2,32.5-39.6l5.4,1.4C193.7,134.6,182.5,176.5,156.3,176.5z"/>
	<path fill="#3D3734" d="M136.5,175.1c0,4.4-3.6,8-8,8h-19.3c-4.4,0-8-3.6-8-8v-2.7c0-4.4,3.6-8,8-8h19.3c4.4,0,8,3.6,8,8V175.1z"/>
	<path fill="#3D3734" d="M40.1,94.7c0,2.9-2.4,5.3-5.3,5.3h-3.2c-3,0-5.3-2.4-5.3-5.3v-3.2c0-2.9,2.4-5.3,5.3-5.3h3.2
		c2.9,0,5.3,2.4,5.3,5.3V94.7z"/>
	<path fill="#453E3A" d="M5,125.3c0,16.9,13.6,30.7,30.5,30.8V94.5C18.6,94.6,5,108.4,5,125.3z"/>
	<path fill="#F8AD00" d="M47.2,153.1c0,3.6-2.9,6.6-6.6,6.6l0,0c-3.6,0-6.6-2.9-6.6-6.6V97.5c0-3.6,2.9-6.6,6.6-6.6l0,0
		c3.6,0,6.6,2.9,6.6,6.6V153.1z"/>
	<path fill="#3D3734" d="M170.5,91.8h-7.1c0-34.5-28.4-62.6-63.3-62.6c-34.9,0-63.3,28.1-63.3,62.6h-7.1C29.6,53.3,61.2,22,100,22
		S170.5,53.3,170.5,91.8z"/>
	<path fill="#3D3734" d="M159.9,94.7c0,2.9,2.4,5.3,5.3,5.3h3.2c2.9,0,5.3-2.4,5.3-5.3v-3.2c0-2.9-2.4-5.3-5.3-5.3h-3.2
		c-2.9,0-5.3,2.4-5.3,5.3V94.7z"/>
	<path fill="#453E3A" d="M195,125.3c0,16.9-13.6,30.7-30.5,30.8V94.5C181.4,94.6,195,108.4,195,125.3z"/>
	<path fill="#F8AD00" d="M152.7,153.1c0,3.6,2.9,6.6,6.6,6.6l0,0c3.6,0,6.5-2.9,6.5-6.6V97.5c0-3.6-2.9-6.6-6.5-6.6l0,0
		c-3.6,0-6.6,2.9-6.6,6.6V153.1z"/>
	<path fill="none" stroke="#3D3734" stroke-width="4.6046" stroke-miterlimit="10" d="M166.9,91.8"/>
	<path fill="#3D3734" d="M54.5,52c-2.4,0-4.7-0.9-6.4-2.8c-3.3-3.5-3-9.1,0.5-12.3c14-12.9,32.3-20,51.5-20c19.2,0,37.4,7.1,51.5,20
		c3.6,3.3,3.8,8.8,0.5,12.3c-3.3,3.5-8.8,3.8-12.3,0.5c-10.8-9.9-24.9-15.4-39.6-15.4c-14.8,0-28.8,5.5-39.6,15.4
		C58.7,51.3,56.6,52,54.5,52z"/>
</g>
</svg>
