<?xml version="1.0" encoding="utf-8"?>
<!-- Generator: Adobe Illustrator 18.1.1, SVG Export Plug-In . SVG Version: 6.00 Build 0)  -->
<svg version="1.1" id="Camada_1" xmlns="http://www.w3.org/2000/svg" xmlns:xlink="http://www.w3.org/1999/xlink" x="0px" y="0px"
	 viewBox="0 0 200 200" enable-background="new 0 0 200 200" xml:space="preserve">
<g>
	<g>
		<path fill="#DEDC00" d="M104.1,89.3C83,79.2,57,89.5,46,112.3C30,145.8,66.1,159.1,36.6,189c-16.5,16.7,68.1-2.7,86-40
			C133.5,126.2,125.3,99.4,104.1,89.3L104.1,89.3z M104.1,89.3"/>
		<path fill="#3D3734" d="M164,28.1L121.8,5.4c-1.6-0.9-3.4-0.2-4.1,1.5c0,0-10.8,28.1-14.6,38.9c-1,2.7-1.8,4.2,0.6,5.5
			c7.3,3.9,23.7,12.8,31.9,17.2c2.1,1.2,3.2-0.6,4.8-2.7c6.3-8.6,24.5-33.4,24.5-33.4C166,30.9,165.6,29,164,28.1L164,28.1z
			 M164,28.1"/>
	</g>
	<path fill="#634E42" d="M132.5,75.2c-7.4-3.6-22.9-11-30.3-14.5c-3-1.4-3.6,1.8-4,3c-1.1,2.9-3.8,11.9-3.8,11.9
		c-0.6,1.7,0.5,3.4,2.3,3.7c0,0,7,1,11.8,3.4c6,2.9,12.5,9.8,12.5,9.8c1.2,1.3,3.1,1.2,4.1-0.3c0,0,6.1-8.8,7.9-11.9
		C133.6,79,135.2,76.5,132.5,75.2L132.5,75.2z M132.5,75.2"/>
</g>
</svg>
