<?xml version="1.0" encoding="utf-8"?>
<!-- Generator: Adobe Illustrator 18.1.1, SVG Export Plug-In . SVG Version: 6.00 Build 0)  -->
<svg version="1.1" id="Camada_1" xmlns="http://www.w3.org/2000/svg" xmlns:xlink="http://www.w3.org/1999/xlink" x="0px" y="0px"
	 viewBox="0 0 200 200" enable-background="new 0 0 200 200" xml:space="preserve">
<g>
	<path fill="#544B48" d="M96.6,16.7l-10.4,96.8c0,0-0.2,42.3,43.2,61.2l13.7-127.9C143.1,46.8,117.8,45,96.6,16.7z"/>
	<path fill="#3D3734" d="M195,27.2L184.6,124c0,0-8.8,41.3-55.2,50.7l13.7-127.9C143.1,46.8,168.2,50.5,195,27.2z"/>
	<path fill="#FFFFFF" d="M116.4,65.2c-6.9-0.7-13.3,2.2-16.8,5c-2.3,1.8-2.7,5.1-0.9,7.4c1.8,2.3,5.1,2.7,7.4,0.9
		c8.9-6.8,15.5,0.3,16.7,1.8c1.9,2.2,5.2,2.5,7.4,0.7c2.2-1.9,2.5-5.2,0.7-7.4C126.3,68.1,121.3,65.8,116.4,65.2z"/>
	<path fill="#FFFFFF" d="M165.9,70.6c-6.9-0.7-13.3,2.2-16.8,5c-2.3,1.8-2.7,5.1-0.9,7.4c1.8,2.3,5.1,2.7,7.4,0.9
		c8.9-6.8,15.5,0.3,16.7,1.8c1.9,2.2,5.2,2.6,7.4,0.7c2.2-1.9,2.5-5.2,0.7-7.4C175.8,73.4,170.7,71.1,165.9,70.6z"/>
	<path fill="#FFFFFF" d="M134.6,126.7c-0.6-0.1-1.1-0.1-1.7-0.1c-11.7-0.5-19.8,7-20.7,7.8c-2.6,2.5-2.7,6.7-0.2,9.3
		c2.5,2.6,6.6,2.7,9.3,0.2c0.2-0.2,5-4.5,11.2-4.2c4.3,0.2,8.5,2.7,12.6,7.3c2.4,2.7,6.5,3,9.3,0.6c2.7-2.4,3-6.6,0.6-9.3
		C148.8,131.4,141.9,127.5,134.6,126.7z"/>
	<path fill="#FFFFFF" d="M169.7,103.4c-0.5,4.8-3,6.9-5.8,6.6c-2.8-0.3-4.7-3-4.2-7.7c0.5-4.8,6.1-9.5,6.1-9.5
		S170.2,98.6,169.7,103.4z"/>
	<path fill="#F8AD00" d="M5,29.7v97.4c0,0,4.3,42,49.5,56.3V54.7C54.5,54.7,29.1,55.7,5,29.7z"/>
	<path fill="#D29400" d="M103.9,29.7v97.4c0,0-4.3,42-49.5,56.3V54.7C54.5,54.7,79.8,55.7,103.9,29.7z"/>
	<path fill="#FFFFFF" d="M29.9,99.6c-6.9,0-13-3.6-16.2-6.8c-2.1-2-2.1-5.4-0.1-7.4c2-2.1,5.3-2.1,7.4-0.1c8.1,7.7,15.4,1.4,16.8,0
		c2.1-2,5.4-2,7.4,0.1c2,2.1,2,5.4-0.1,7.4C40,97.8,34.7,99.6,29.9,99.6z"/>
	<path fill="#FFFFFF" d="M79.6,99.6c-7,0-13-3.6-16.2-6.8c-2.1-2-2.1-5.4-0.1-7.4c2-2.1,5.3-2.1,7.4-0.1c8.1,7.7,15.4,1.4,16.8,0
		c2.1-2,5.4-2,7.4,0.1c2,2.1,2,5.4-0.1,7.4C89.8,97.8,84.5,99.6,79.6,99.6z"/>
	<path fill="#FFFFFF" d="M54.5,155.9c-0.6,0-1.1,0-1.7-0.1c-11.7-0.8-18.9-9-19.7-10c-2.3-2.8-2-6.9,0.8-9.3c2.8-2.3,6.9-2,9.2,0.8
		c0.2,0.2,4.5,5,10.6,5.4c4.3,0.2,8.7-1.8,13.3-5.9c2.7-2.5,6.8-2.3,9.3,0.4c2.5,2.7,2.3,6.8-0.4,9.3
		C69.1,152.7,61.9,155.9,54.5,155.9z"/>
</g>
</svg>
