<?xml version="1.0" encoding="utf-8"?>
<!-- Generator: Adobe Illustrator 18.1.1, SVG Export Plug-In . SVG Version: 6.00 Build 0)  -->
<svg version="1.1" id="Camada_1" xmlns="http://www.w3.org/2000/svg" xmlns:xlink="http://www.w3.org/1999/xlink" x="0px" y="0px"
	 viewBox="0 0 100 100" enable-background="new 0 0 100 100" xml:space="preserve">
<path d="M-306.8-162.9c-3.7-5.9-16.9-1.2-31,7.7c-14.1,9-23.9,18.9-20.1,24.8c2.3,3.6,8.5,4,16.1,1.9l19,29.8
	c-5.2,6-7.4,11.8-5.2,15.4c3.4,5.3,15.3,3.8,28-3.1l9.6,15.1l9.7,5.8l-1.2-11.2l-9.6-15.1c11.5-8.5,18-18.8,14.6-24
	c-2.3-3.6-8.5-4-16.1-1.9l-19-29.8C-306.7-153.6-304.5-159.4-306.8-162.9z"/>
<g>
	<g>
		<path d="M-269.3,77.5l-16.9-16.9c-1.3-1.3-2.9-1.9-4.5-1.9c6.4-9.5,5.4-22.4-3-30.8c-9.5-9.5-25-9.5-34.5,0
			c-9.5,9.5-9.5,25,0,34.5c8.4,8.4,21.3,9.4,30.8,3c0,1.6,0.7,3.3,1.9,4.5l16.9,16.9c2.6,2.6,6.7,2.6,9.3,0
			C-266.7,84.2-266.7,80-269.3,77.5L-269.3,77.5z M-299,57c-6.6,6.6-17.3,6.6-23.9,0c-6.6-6.6-6.6-17.3,0-23.9
			c6.6-6.6,17.3-6.6,23.9,0C-292.5,39.7-292.5,50.4-299,57L-299,57z M-299,57"/>
		<path d="M-357.8,33.5h-4.6c-2.7,0-4.9,2.2-4.9,4.9v27.2c0,2.7,2.2,4.9,4.9,4.9h4.6c2.7,0,4.9-2.2,4.9-4.9V38.5
			C-352.9,35.7-355.1,33.5-357.8,33.5L-357.8,33.5z M-357.8,33.5"/>
		<path d="M-330.7,26.1v-9.8c0-2.7-2.2-4.9-4.9-4.9h-4.6c-2.7,0-4.9,2.2-4.9,4.9v49.3c0,2.7,2.2,4.9,4.9,4.9h4.6
			c2.7,0,4.9-2.2,4.9-4.9v-2.4c-4.8-5-7.4-11.6-7.4-18.6C-338.2,37.6-335.5,31.1-330.7,26.1L-330.7,26.1z M-330.7,26.1"/>
	</g>
	<path d="M-313.5,33.5h-4.6c-2.7,0-4.9,2.2-4.9,4.9v14.7c0.4,0.6,0.9,1.1,1.4,1.7c2.7,2.7,6.3,4.2,10.2,4.2c1,0,1.9-0.1,2.8-0.3
		V38.5C-308.5,35.7-310.7,33.5-313.5,33.5L-313.5,33.5z M-313.5,33.5"/>
</g>
<g>
	<path d="M-286.1-315.7v5.8c0,2.4,1.9,4.3,4.3,4.3c2.4,0,4.3-1.9,4.3-4.3v-5.8h5.8c2.4,0,4.3-2,4.3-4.3c0-2.4-1.9-4.3-4.3-4.3h-5.8
		v-5.7c0-2.4-1.9-4.3-4.3-4.3c-2.4,0-4.3,1.9-4.3,4.3v5.7h-5.7c-2.4,0-4.3,1.9-4.3,4.3c0,2.4,1.9,4.3,4.3,4.3H-286.1z M-286.1-315.7
		"/>
	<path d="M-287.6-294.6c0,6-2.4,11.4-6.4,15.3c-3.9,3.9-9.3,6.3-15.3,6.3c-6,0-11.4-2.4-15.3-6.3c-3.9-3.9-6.4-9.3-6.4-15.3
		c0-6,2.4-11.4,6.4-15.3c3.9-3.9,9.3-6.3,15.3-6.3c6,0,11.4,2.4,15.3,6.3C-290.1-306-287.6-300.6-287.6-294.6L-287.6-294.6z
		 M-287.6-294.6"/>
	<g>
		<path d="M-335-294.6c0-6.9,2.7-13.3,7.5-18.2c3.1-3.1,6.8-5.2,10.8-6.4c-0.6-0.8-1.2-1.5-1.9-2.2c-4.6-4.6-11-7.5-18.1-7.5
			c-7.1,0-13.5,2.9-18.1,7.5c-4.6,4.6-7.5,11-7.5,18.1c0,7.1,2.8,13.5,7.5,18.1c4.6,4.6,11,7.5,18.1,7.5c2.5,0,4.9-0.4,7.2-1
			C-333-283.3-335-288.8-335-294.6z"/>
	</g>
	<path d="M-309.3-268.6c-16.3,0-26,8.7-26,17.3c0,4.3,9.8,8.7,26,8.7c15.2,0,26-4.3,26-8.7C-283.3-260-293.5-268.6-309.3-268.6
		L-309.3-268.6z M-309.3-268.6"/>
	<g>
		<path d="M-339.3-251.3c0-7.6,5.7-15.6,16.5-19.2c-4-1.3-8.7-2.1-13.8-2.1c-19.2,0-30.7,10.2-30.7,20.4c0,5.1,11.5,10.2,30.7,10.2
			c1.8,0,3.6-0.1,5.3-0.2C-336.4-244.3-339.3-247.5-339.3-251.3z"/>
	</g>
</g>
<g>
	<path d="M0-242.7v-80.4h80.4v80.4H0z M63.5-259.6v-46.5H16.9v46.5H63.5z"/>
	<polygon points="39.6,-263.6 2,-301.1 11.5,-310.7 39.6,-282.7 90.5,-333.7 100,-324.2 	"/>
</g>
<path d="M0-70.1v-80.4h80.4v80.4H0z M63.5-87v-46.5H16.9V-87H63.5z"/>
<path d="M0,95.5V15.1h80.4v80.4H0z M63.5,78.6V32H16.9v46.5H63.5z"/>
<g>
	<path d="M39.7,48.9l7.8-12h12.6L46.6,54.5l14.5,18H47.9l-8-12.3l-8,12.3H19.3l13.8-18L19.6,36.9h12.5L39.7,48.9z"/>
</g>
</svg>
