<?xml version="1.0" encoding="utf-8"?>
<!-- Generator: Adobe Illustrator 18.1.1, SVG Export Plug-In . SVG Version: 6.00 Build 0)  -->
<svg version="1.1" id="Camada_1" xmlns="http://www.w3.org/2000/svg" xmlns:xlink="http://www.w3.org/1999/xlink" x="0px" y="0px"
	 viewBox="0 0 100 100" enable-background="new 0 0 100 100" xml:space="preserve">
<path d="M60.5,2.6c-3.7-5.9-16.9-1.2-31,7.7c-14.1,9-23.9,18.9-20.1,24.8c2.3,3.6,8.5,4,16.1,1.9l19,29.8c-5.2,6-7.4,11.8-5.2,15.4
	c3.4,5.3,15.3,3.8,28-3.1l9.6,15.1l9.7,5.8l-1.2-11.2l-9.6-15.1c11.5-8.5,18-18.8,14.6-24c-2.3-3.6-8.5-4-16.1-1.9L55.4,18
	C60.6,12,62.8,6.2,60.5,2.6z"/>
</svg>
