<?xml version="1.0" encoding="utf-8"?>
<!-- Generator: Adobe Illustrator 18.1.1, SVG Export Plug-In . SVG Version: 6.00 Build 0)  -->
<svg version="1.1" id="Camada_1" xmlns="http://www.w3.org/2000/svg" xmlns:xlink="http://www.w3.org/1999/xlink" x="0px" y="0px"
	 viewBox="0 0 100 100" enable-background="new 0 0 100 100" xml:space="preserve">
<g>
	<path d="M81.2,22.5v5.8c0,2.4,1.9,4.3,4.3,4.3c2.4,0,4.3-1.9,4.3-4.3v-5.8h5.8c2.4,0,4.3-2,4.3-4.3c0-2.4-1.9-4.3-4.3-4.3h-5.8V8.1
		c0-2.4-1.9-4.3-4.3-4.3c-2.4,0-4.3,1.9-4.3,4.3v5.7h-5.7c-2.4,0-4.3,1.9-4.3,4.3c0,2.4,1.9,4.3,4.3,4.3H81.2z M81.2,22.5"/>
	<path d="M79.7,43.6c0,6-2.4,11.4-6.4,15.3c-3.9,3.9-9.3,6.3-15.3,6.3c-6,0-11.4-2.4-15.3-6.3c-3.9-3.9-6.4-9.3-6.4-15.3
		c0-6,2.4-11.4,6.4-15.3c3.9-3.9,9.3-6.3,15.3-6.3c6,0,11.4,2.4,15.3,6.3C77.3,32.2,79.7,37.6,79.7,43.6L79.7,43.6z M79.7,43.6"/>
	<g>
		<path d="M32.4,43.6c0-6.9,2.7-13.3,7.5-18.2c3.1-3.1,6.8-5.2,10.8-6.4c-0.6-0.8-1.2-1.5-1.9-2.2c-4.6-4.6-11-7.5-18.1-7.5
			c-7.1,0-13.5,2.9-18.1,7.5c-4.6,4.6-7.5,11-7.5,18.1c0,7.1,2.8,13.5,7.5,18.1c4.6,4.6,11,7.5,18.1,7.5c2.5,0,4.9-0.4,7.2-1
			C34.3,54.9,32.4,49.4,32.4,43.6z"/>
	</g>
	<path d="M58,69.6c-16.3,0-26,8.7-26,17.3c0,4.3,9.8,8.7,26,8.7c15.2,0,26-4.3,26-8.7C84,78.2,73.8,69.6,58,69.6L58,69.6z M58,69.6"
		/>
	<g>
		<path d="M28,86.9c0-7.6,5.7-15.6,16.5-19.2c-4-1.3-8.7-2.1-13.8-2.1C11.5,65.5,0,75.8,0,86c0,5.1,11.5,10.2,30.7,10.2
			c1.8,0,3.6-0.1,5.3-0.2C30.9,93.9,28,90.7,28,86.9z"/>
	</g>
</g>
</svg>
