<?xml version="1.0" encoding="utf-8"?>
<!-- Generator: Adobe Illustrator 18.1.1, SVG Export Plug-In . SVG Version: 6.00 Build 0)  -->
<svg version="1.1" id="Camada_1" xmlns="http://www.w3.org/2000/svg" xmlns:xlink="http://www.w3.org/1999/xlink" x="0px" y="0px"
	 viewBox="0 0 100 100" enable-background="new 0 0 100 100" xml:space="preserve">
<g>
	<g>
		<path d="M98.1,77.5L81.1,60.5c-1.3-1.3-2.9-1.9-4.5-1.9c6.4-9.5,5.4-22.4-3-30.8c-9.5-9.5-25-9.5-34.5,0c-9.5,9.5-9.5,25,0,34.5
			c8.4,8.4,21.3,9.4,30.8,3c0,1.6,0.7,3.3,1.9,4.5l16.9,16.9c2.6,2.6,6.7,2.6,9.3,0C100.6,84.2,100.6,80,98.1,77.5L98.1,77.5z
			 M68.3,57c-6.6,6.6-17.3,6.6-23.9,0c-6.6-6.6-6.6-17.3,0-23.9c6.6-6.6,17.3-6.6,23.9,0C74.9,39.7,74.9,50.4,68.3,57L68.3,57z
			 M68.3,57"/>
		<path d="M9.5,33.5H4.9c-2.7,0-4.9,2.2-4.9,4.9v27.2c0,2.7,2.2,4.9,4.9,4.9h4.6c2.7,0,4.9-2.2,4.9-4.9V38.5
			C14.4,35.7,12.2,33.5,9.5,33.5L9.5,33.5z M9.5,33.5"/>
		<path d="M36.6,26.1v-9.8c0-2.7-2.2-4.9-4.9-4.9h-4.6c-2.7,0-4.9,2.2-4.9,4.9v49.3c0,2.7,2.2,4.9,4.9,4.9h4.6
			c2.7,0,4.9-2.2,4.9-4.9v-2.4c-4.8-5-7.4-11.6-7.4-18.6C29.2,37.6,31.8,31.1,36.6,26.1L36.6,26.1z M36.6,26.1"/>
	</g>
	<path d="M53.9,33.5h-4.6c-2.7,0-4.9,2.2-4.9,4.9v14.7c0.4,0.6,0.9,1.1,1.4,1.7C48.5,57.5,52.1,59,56,59c1,0,1.9-0.1,2.8-0.3V38.5
		C58.8,35.7,56.6,33.5,53.9,33.5L53.9,33.5z M53.9,33.5"/>
</g>
</svg>
